<?xml version="1.0" standalone="no"?>
<!DOCTYPE svg PUBLIC "-//W3C//DTD SVG 20010904//EN"
 "http://www.w3.org/TR/2001/REC-SVG-20010904/DTD/svg10.dtd">
<svg version="1.0" xmlns="http://www.w3.org/2000/svg"
 width="98.000000pt" height="98.000000pt" viewBox="0 0 98.000000 98.000000"
 preserveAspectRatio="xMidYMid meet">
<metadata>
Created by potrace 1.14, written by Peter Selinger 2001-2017
</metadata>
<g transform="translate(0.000000,98.000000) scale(0.100000,-0.100000)"
fill="#000000" stroke="none">
<path d="M9 850 c-1 -11 -1 -29 -1 -40 0 -11 0 -25 1 -30 1 -7 37 -10 99 -8
l97 3 0 45 0 45 -97 3 c-93 3 -98 2 -99 -18z"/>
<path d="M289 719 c-24 -11 -54 -30 -66 -41 l-23 -21 0 31 c0 18 -5 33 -12 33
-62 7 -156 5 -170 -2 -17 -9 -18 -30 -16 -307 l3 -297 94 -3 c52 -1 99 2 104
7 5 5 10 94 11 204 1 192 1 196 25 221 32 34 88 36 119 3 29 -31 28 -51 -8
-96 -54 -66 -49 -159 12 -229 18 -22 28 -42 26 -60 -3 -47 6 -52 101 -52 97 0
109 6 109 54 0 17 8 35 20 45 78 62 82 185 8 264 -17 18 -25 35 -21 47 19 60
117 71 148 17 8 -15 14 -89 17 -222 l5 -200 97 -3 c96 -3 98 -2 104 22 3 13 4
118 2 233 -4 229 -9 253 -76 316 -83 79 -248 66 -322 -26 -16 -19 -16 -19 -33
6 -44 68 -170 95 -258 56z"/>
</g>
</svg>
